<svg xmlns="http://www.w3.org/2000/svg" viewBox="0 0 800 560" font-family="Inter, system-ui, sans-serif">
  <defs>
    <linearGradient id="bg" x1="0" y1="0" x2="0" y2="1"><stop offset="0%" stop-color="#f8f9fa"/><stop offset="100%" stop-color="#e8edf2"/></linearGradient>
    <filter id="sh" x="-4%" y="-4%" width="108%" height="116%"><feDropShadow dx="0" dy="2" stdDeviation="6" flood-opacity="0.08"/></filter>
  </defs>
  <rect width="800" height="560" fill="url(#bg)" rx="16"/>
  <rect x="0" y="0" width="800" height="56" fill="#25274d" rx="16"/><rect x="0" y="30" width="800" height="26" fill="#25274d"/>
  <text x="400" y="36" fill="white" font-size="18" font-weight="700" text-anchor="middle">The Complete Local SEO Checklist: 47 Steps in 6 Categories</text>
  <rect x="40" y="76" width="720" height="460" rx="12" fill="white" filter="url(#sh)"/>

  <!-- Category 1 -->
  <rect x="60" y="96" width="220" height="130" rx="10" fill="#fff8f0" stroke="#ed7c21" stroke-width="1.5"/>
  <rect x="60" y="96" width="220" height="30" rx="10" fill="#ed7c21"/><rect x="60" y="110" width="220" height="16" fill="#ed7c21"/>
  <text x="170" y="116" fill="white" font-size="12" font-weight="700" text-anchor="middle">Google Business Profile</text>
  <text x="170" y="148" fill="#ed7c21" font-size="32" font-weight="800" text-anchor="middle">12</text>
  <text x="170" y="166" fill="#25274d" font-size="11" font-weight="600" text-anchor="middle">optimization steps</text>
  <text x="170" y="184" fill="#6b7280" font-size="10" text-anchor="middle">Categories, photos, posts,</text>
  <text x="170" y="198" fill="#6b7280" font-size="10" text-anchor="middle">Q&amp;A, services, attributes</text>
  <rect x="110" y="206" width="120" height="14" rx="7" fill="#ed7c21" opacity="0.15"/>
  <text x="170" y="216" fill="#ed7c21" font-size="9" font-weight="700" text-anchor="middle">HIGHEST IMPACT</text>

  <!-- Category 2 -->
  <rect x="295" y="96" width="220" height="130" rx="10" fill="#f0f7ff" stroke="#3b82f6" stroke-width="1.5"/>
  <rect x="295" y="96" width="220" height="30" rx="10" fill="#3b82f6"/><rect x="295" y="110" width="220" height="16" fill="#3b82f6"/>
  <text x="405" y="116" fill="white" font-size="12" font-weight="700" text-anchor="middle">On-Page SEO</text>
  <text x="405" y="148" fill="#3b82f6" font-size="32" font-weight="800" text-anchor="middle">10</text>
  <text x="405" y="166" fill="#25274d" font-size="11" font-weight="600" text-anchor="middle">optimization steps</text>
  <text x="405" y="184" fill="#6b7280" font-size="10" text-anchor="middle">Title tags, meta, headers,</text>
  <text x="405" y="198" fill="#6b7280" font-size="10" text-anchor="middle">schema, internal links, NAP</text>

  <!-- Category 3 -->
  <rect x="530" y="96" width="210" height="130" rx="10" fill="#f0fdf4" stroke="#10b981" stroke-width="1.5"/>
  <rect x="530" y="96" width="210" height="30" rx="10" fill="#10b981"/><rect x="530" y="110" width="210" height="16" fill="#10b981"/>
  <text x="635" y="116" fill="white" font-size="12" font-weight="700" text-anchor="middle">Technical SEO</text>
  <text x="635" y="148" fill="#10b981" font-size="32" font-weight="800" text-anchor="middle">8</text>
  <text x="635" y="166" fill="#25274d" font-size="11" font-weight="600" text-anchor="middle">optimization steps</text>
  <text x="635" y="184" fill="#6b7280" font-size="10" text-anchor="middle">Speed, mobile, sitemap,</text>
  <text x="635" y="198" fill="#6b7280" font-size="10" text-anchor="middle">HTTPS, crawl errors, Core Vitals</text>

  <!-- Category 4 -->
  <rect x="60" y="240" width="220" height="130" rx="10" fill="#faf5ff" stroke="#8b5cf6" stroke-width="1.5"/>
  <rect x="60" y="240" width="220" height="30" rx="10" fill="#8b5cf6"/><rect x="60" y="254" width="220" height="16" fill="#8b5cf6"/>
  <text x="170" y="260" fill="white" font-size="12" font-weight="700" text-anchor="middle">Citations &amp; Directories</text>
  <text x="170" y="292" fill="#8b5cf6" font-size="32" font-weight="800" text-anchor="middle">7</text>
  <text x="170" y="310" fill="#25274d" font-size="11" font-weight="600" text-anchor="middle">optimization steps</text>
  <text x="170" y="328" fill="#6b7280" font-size="10" text-anchor="middle">NAP consistency, directories,</text>
  <text x="170" y="342" fill="#6b7280" font-size="10" text-anchor="middle">aggregators, industry listings</text>

  <!-- Category 5 -->
  <rect x="295" y="240" width="220" height="130" rx="10" fill="#fefce8" stroke="#eab308" stroke-width="1.5"/>
  <rect x="295" y="240" width="220" height="30" rx="10" fill="#eab308"/><rect x="295" y="254" width="220" height="16" fill="#eab308"/>
  <text x="405" y="260" fill="white" font-size="12" font-weight="700" text-anchor="middle">Reviews &amp; Reputation</text>
  <text x="405" y="292" fill="#eab308" font-size="32" font-weight="800" text-anchor="middle">5</text>
  <text x="405" y="310" fill="#25274d" font-size="11" font-weight="600" text-anchor="middle">optimization steps</text>
  <text x="405" y="328" fill="#6b7280" font-size="10" text-anchor="middle">Review generation, responses,</text>
  <text x="405" y="342" fill="#6b7280" font-size="10" text-anchor="middle">monitoring, multi-platform</text>

  <!-- Category 6 -->
  <rect x="530" y="240" width="210" height="130" rx="10" fill="#fef2f2" stroke="#ef4444" stroke-width="1.5"/>
  <rect x="530" y="240" width="210" height="30" rx="10" fill="#ef4444"/><rect x="530" y="254" width="210" height="16" fill="#ef4444"/>
  <text x="635" y="260" fill="white" font-size="12" font-weight="700" text-anchor="middle">Content &amp; Links</text>
  <text x="635" y="292" fill="#ef4444" font-size="32" font-weight="800" text-anchor="middle">5</text>
  <text x="635" y="310" fill="#25274d" font-size="11" font-weight="600" text-anchor="middle">optimization steps</text>
  <text x="635" y="328" fill="#6b7280" font-size="10" text-anchor="middle">City pages, blog content,</text>
  <text x="635" y="342" fill="#6b7280" font-size="10" text-anchor="middle">local link building, outreach</text>

  <!-- Priority order -->
  <rect x="60" y="388" width="680" height="130" rx="10" fill="#25274d"/>
  <text x="400" y="414" fill="white" font-size="14" font-weight="700" text-anchor="middle">Recommended Priority Order</text>
  <!-- Progress bar -->
  <rect x="80" y="430" width="640" height="24" rx="12" fill="white" opacity="0.1"/>
  <rect x="80" y="430" width="164" height="24" rx="12" fill="#ed7c21"/>
  <rect x="244" y="430" width="128" height="24" fill="#3b82f6"/>
  <rect x="372" y="430" width="100" height="24" fill="#10b981"/>
  <rect x="472" y="430" width="90" height="24" fill="#8b5cf6"/>
  <rect x="562" y="430" width="75" height="24" fill="#eab308"/>
  <rect x="637" y="430" width="83" height="24" rx="12" fill="#ef4444"/>

  <text x="162" y="446" fill="white" font-size="9" font-weight="700" text-anchor="middle">GBP</text>
  <text x="308" y="446" fill="white" font-size="9" font-weight="700" text-anchor="middle">On-Page</text>
  <text x="422" y="446" fill="white" font-size="9" font-weight="700" text-anchor="middle">Technical</text>
  <text x="517" y="446" fill="white" font-size="9" font-weight="700" text-anchor="middle">Citations</text>
  <text x="600" y="446" fill="white" font-size="9" font-weight="700" text-anchor="middle">Reviews</text>
  <text x="678" y="446" fill="white" font-size="9" font-weight="700" text-anchor="middle">Content</text>

  <text x="80" y="476" fill="#94a3b8" font-size="10">Week 1-2</text>
  <text x="310" y="476" fill="#94a3b8" font-size="10">Week 2-3</text>
  <text x="520" y="476" fill="#94a3b8" font-size="10">Week 3-4</text>
  <text x="660" y="476" fill="#94a3b8" font-size="10">Ongoing</text>

  <text x="400" y="506" fill="#94a3b8" font-size="11" text-anchor="middle">Complete all 47 steps within 90 days for maximum ranking impact</text>

  <text x="770" y="548" fill="#25274d" font-size="9" font-weight="600" text-anchor="end" opacity="0.5">websiteandseoagency.com</text>
</svg>