<svg xmlns="http://www.w3.org/2000/svg" viewBox="0 0 800 520" font-family="Inter, system-ui, sans-serif">
  <defs>
    <linearGradient id="bg3" x1="0" y1="0" x2="0" y2="1"><stop offset="0%" stop-color="#f8f9fa"/><stop offset="100%" stop-color="#e8edf2"/></linearGradient>
    <linearGradient id="barGold" x1="0" y1="0" x2="0" y2="1"><stop offset="0%" stop-color="#ed7c21"/><stop offset="100%" stop-color="#d4690f"/></linearGradient>
    <linearGradient id="barNavy" x1="0" y1="0" x2="0" y2="1"><stop offset="0%" stop-color="#25274d"/><stop offset="100%" stop-color="#1a1c38"/></linearGradient>
    <filter id="sh3" x="-4%" y="-4%" width="108%" height="116%"><feDropShadow dx="0" dy="2" stdDeviation="6" flood-opacity="0.08"/></filter>
  </defs>
  <rect width="800" height="520" fill="url(#bg3)" rx="16"/>
  <rect x="0" y="0" width="800" height="56" fill="#25274d" rx="16"/><rect x="0" y="30" width="800" height="26" fill="#25274d"/>
  <text x="400" y="36" fill="white" font-size="18" font-weight="700" text-anchor="middle">Google Click-Through Rate by Ranking Position (Local Search)</text>
  <rect x="40" y="76" width="720" height="420" rx="12" fill="white" filter="url(#sh3)"/>
  <text x="400" y="104" fill="#6b7280" font-size="12" text-anchor="middle">% of searchers who click each position for local service searches</text>
  <text x="130" y="142" fill="#25274d" font-size="12" font-weight="700" text-anchor="end">Map #1</text>
  <rect x="140" y="128" width="475" height="22" rx="4" fill="url(#barGold)"/>
  <text x="625" y="144" fill="white" font-size="12" font-weight="700">33.6%</text>
  <rect x="660" y="130" width="80" height="18" rx="9" fill="#fef3e8"/>
  <text x="700" y="143" fill="#ed7c21" font-size="9" font-weight="700" text-anchor="middle">YOUR GOAL</text>
  <text x="130" y="174" fill="#25274d" font-size="12" font-weight="700" text-anchor="end">Map #2</text>
  <rect x="140" y="160" width="310" height="22" rx="4" fill="#ed7c21" opacity="0.75"/>
  <text x="458" y="176" fill="#25274d" font-size="12" font-weight="600">21.9%</text>
  <text x="130" y="206" fill="#25274d" font-size="12" font-weight="700" text-anchor="end">Map #3</text>
  <rect x="140" y="192" width="195" height="22" rx="4" fill="#ed7c21" opacity="0.55"/>
  <text x="343" y="208" fill="#25274d" font-size="12" font-weight="600">13.8%</text>
  <line x1="80" y1="228" x2="730" y2="228" stroke="#e5e7eb" stroke-width="1" stroke-dasharray="6,4"/>
  <text x="405" y="244" fill="#9ca3af" font-size="10" font-weight="600" text-anchor="middle">— ORGANIC RESULTS BELOW MAP PACK —</text>
  <text x="130" y="274" fill="#25274d" font-size="12" font-weight="600" text-anchor="end">Organic #1</text>
  <rect x="140" y="260" width="140" height="22" rx="4" fill="url(#barNavy)"/>
  <text x="288" y="276" fill="#25274d" font-size="12" font-weight="600">9.8%</text>
  <text x="130" y="306" fill="#6b7280" font-size="12" font-weight="600" text-anchor="end">Organic #2</text>
  <rect x="140" y="292" width="92" height="22" rx="4" fill="#25274d" opacity="0.7"/>
  <text x="240" y="308" fill="#6b7280" font-size="12" font-weight="600">6.5%</text>
  <text x="130" y="338" fill="#6b7280" font-size="12" font-weight="600" text-anchor="end">Organic #3</text>
  <rect x="140" y="324" width="62" height="22" rx="4" fill="#25274d" opacity="0.5"/>
  <text x="210" y="340" fill="#6b7280" font-size="12" font-weight="600">4.4%</text>
  <text x="130" y="370" fill="#9ca3af" font-size="12" font-weight="600" text-anchor="end">Organic #4</text>
  <rect x="140" y="356" width="42" height="22" rx="4" fill="#25274d" opacity="0.35"/>
  <text x="190" y="372" fill="#9ca3af" font-size="12" font-weight="600">3.0%</text>
  <text x="130" y="402" fill="#9ca3af" font-size="12" font-weight="600" text-anchor="end">Pos. 5-10</text>
  <rect x="140" y="388" width="28" height="22" rx="4" fill="#25274d" opacity="0.2"/>
  <text x="176" y="404" fill="#9ca3af" font-size="12" font-weight="600">1-2%</text>
  <rect x="60" y="428" width="700" height="50" rx="8" fill="#fef3e8"/>
  <text x="400" y="450" fill="#b45309" font-size="13" font-weight="700" text-anchor="middle">The Map Pack captures 69.3% of all clicks for local service searches.</text>
  <text x="400" y="467" fill="#b45309" font-size="11" text-anchor="middle">Position #1 in the Map Pack gets 3.4x more clicks than the top organic result.</text>
  <text x="770" y="508" fill="#25274d" font-size="9" font-weight="600" text-anchor="end" opacity="0.5">websiteandseoagency.com</text>
</svg>